<?xml version="1.0" standalone="no"?>
<!DOCTYPE svg PUBLIC "-//W3C//DTD SVG 20010904//EN"
 "http://www.w3.org/TR/2001/REC-SVG-20010904/DTD/svg10.dtd">
<svg version="1.0" xmlns="http://www.w3.org/2000/svg"
 width="397.000000pt" height="397.000000pt" viewBox="0 0 397.000000 397.000000"
 preserveAspectRatio="xMidYMid meet">
<metadata>
Created by potrace 1.14, written by Peter Selinger 2001-2017
</metadata>
<g transform="translate(0.000000,397.000000) scale(0.100000,-0.100000)"
fill="#000000" stroke="none">
<path d="M1760 3959 c-670 -77 -1268 -500 -1560 -1104 -139 -286 -200 -554
-200 -875 l0 -160 1008 0 c958 0 1009 1 1048 19 52 24 101 84 112 136 l8 40
93 3 94 3 -6 -52 c-13 -108 -92 -226 -191 -284 -96 -56 -76 -55 -1148 -55
-935 0 -988 -1 -987 -17 1 -10 8 -47 17 -83 l17 -65 998 -3 c886 -2 1006 0
1060 14 220 56 385 251 413 487 l6 58 92 -3 91 -3 -3 -55 c-6 -93 -31 -181
-79 -280 -40 -80 -61 -109 -138 -185 -102 -102 -167 -144 -292 -189 l-88 -31
-997 -3 -997 -3 10 -27 c5 -15 24 -57 41 -94 l31 -68 917 0 c983 0 1005 1
1153 51 344 118 592 436 625 799 l7 85 93 3 92 3 0 -49 c0 -74 -27 -216 -61
-317 -58 -173 -150 -316 -291 -451 -156 -149 -322 -237 -548 -290 -68 -16
-161 -18 -974 -23 l-899 -6 75 -100 c322 -426 813 -708 1348 -775 124 -15 373
-12 502 6 216 29 405 88 604 185 548 267 952 786 1073 1379 38 184 51 417 35
579 l-7 61 -1016 -2 -1016 -3 -43 -23 c-47 -25 -77 -65 -94 -129 l-12 -43 -93
0 -93 0 6 43 c18 113 83 218 171 275 102 66 34 62 1148 62 l1013 0 -9 38 c-6
20 -17 61 -25 90 l-15 52 -984 0 c-689 0 -1000 -3 -1037 -11 -157 -33 -299
-140 -373 -280 -39 -75 -65 -164 -65 -226 l0 -43 -96 0 -97 0 6 73 c26 301
247 562 552 653 56 17 133 19 1042 21 l983 4 -47 94 -48 95 -875 0 c-524 0
-911 -4 -965 -10 -450 -51 -789 -400 -831 -858 l-7 -72 -93 0 c-110 0 -102
-15 -80 150 15 108 59 257 103 345 45 89 130 208 200 280 164 169 354 276 581
327 95 21 119 22 970 27 l874 6 -62 75 c-298 360 -680 596 -1122 694 -200 44
-449 58 -648 35z"/>
</g>
</svg>
